# xmcd
#
# Track frame offsets: 
#        200
#        9930
#        23462
#        35660
#        49507
#        60520
#        77012
#        91260
#        103007
#        114762
#        129042
#        140122
#        153942
#        164337
#
# Disc length: 2351 seconds
#
# Revision: 3
# Processed by: cddbd v1.5.2PL0 Copyright (c) Steve Scherf et al.
# Submitted via: ExactAudioCopy v0.95a5
#
DISCID=99092d0e
DTITLE=Country Gentleman - The Award Winning Country Gentleman
DYEAR=1900
DGENRE=Country
TTITLE0=Walkin' Down the Line
TTITLE1=The Legend of the Rebel Soldier
TTITLE2=Redwood Hill
TTITLE3=The Fields Have Turned Brown
TTITLE4=C.G. Express
TTITLE5=Little Bessie
TTITLE6=Old Pine Tree
TTITLE7=Hickory Hollow's Tramp
TTITLE8=Country Roads
TTITLE9=Secret of the Waterfall
TTITLE10=Breakin' it Down
TTITLE11=The Girl Behind the Bar
TTITLE12=Get in Line Buddy
TTITLE13=New Freedom Bell
EXTD=
EXTT0=
EXTT1=
EXTT2=
EXTT3=
EXTT4=
EXTT5=
EXTT6=
EXTT7=
EXTT8=
EXTT9=
EXTT10=
EXTT11=
EXTT12=
EXTT13=
PLAYORDER=
